<svg width="162" height="48" viewBox="0 0 162 48" fill="none" xmlns="http://www.w3.org/2000/svg">
<path d="M156.236 48H5.6748C2.5464 48 0 45.4464 0 42.3204V5.6712C0 2.544 2.5464 0 5.6748 0H156.236C159.364 0 162 2.544 162 5.6712V42.3204C162 45.4464 159.364 48 156.236 48Z" fill="#A6A6A6"/>
<path d="M160.839 42.3215C160.839 44.8607 158.782 46.9175 156.238 46.9175H5.67516C3.13236 46.9175 1.06836 44.8607 1.06836 42.3215V5.66987C1.06836 3.13187 3.13236 1.06787 5.67516 1.06787H156.237C158.782 1.06787 160.838 3.13187 160.838 5.66987L160.839 42.3215Z" fill="black"/>
<path d="M36.1539 23.7409C36.1191 19.8733 39.3207 17.9917 39.4671 17.9041C37.6539 15.2605 34.8435 14.8993 33.8559 14.8705C31.4955 14.6221 29.2059 16.2829 28.0035 16.2829C26.7771 16.2829 24.9255 14.8945 22.9299 14.9353C20.3619 14.9749 17.9595 16.4617 16.6419 18.7705C13.9227 23.4781 15.9507 30.3961 18.5559 34.2013C19.8591 36.0649 21.3819 38.1457 23.3751 38.0725C25.3251 37.9921 26.0535 36.8293 28.4067 36.8293C30.7383 36.8293 31.4223 38.0725 33.4551 38.0257C35.5479 37.9921 36.8655 36.1537 38.1231 34.2733C39.6291 32.1373 40.2339 30.0337 40.2579 29.9257C40.2087 29.9089 36.1935 28.3765 36.1539 23.7409Z" fill="white"/>
<path d="M32.3135 12.3672C33.3623 11.0556 34.0799 9.27125 33.8807 7.46045C32.3627 7.52765 30.4643 8.51045 29.3711 9.79325C28.4039 10.9236 27.5399 12.7764 27.7631 14.5188C29.4683 14.646 31.2191 13.6584 32.3135 12.3672Z" fill="white"/>
<path fill-rule="evenodd" clip-rule="evenodd" d="M61.6484 37.8046H64.3736L59.2076 21.835H56.0324L50.8916 37.8046H53.5448L54.9668 33.1138H60.1556L61.6484 37.8046ZM58.3556 26.9758L59.7056 31.1458H55.418L56.744 26.9758C57.092 25.6498 57.3452 24.6466 57.5024 23.9674H57.5504C57.9452 25.5466 58.2128 26.5498 58.3556 26.9758Z" fill="white"/>
<path fill-rule="evenodd" clip-rule="evenodd" d="M76.0065 36.5484C77.0649 35.412 77.5941 33.864 77.5941 31.9056C77.5941 30.1524 77.1405 28.7388 76.2309 27.6636C75.3237 26.5896 74.1897 26.0532 72.8313 26.0532C71.0937 26.0532 69.7989 26.7396 68.9457 28.1148H68.8977L68.7549 26.2896H66.5049C66.5673 27.5856 66.5997 28.8492 66.5997 30.0804V42.4968H69.1581V36.4308H69.2061C69.8697 37.5204 70.9593 38.0652 72.4761 38.0652C73.8813 38.0652 75.0585 37.56 76.0065 36.5484ZM74.2293 29.2272C74.7357 29.9544 74.9877 30.8784 74.9877 31.9992C74.9877 33.216 74.7189 34.1952 74.1813 34.938C73.6449 35.6796 72.8949 36.0516 71.9313 36.0516C71.1105 36.0516 70.4433 35.7636 69.9297 35.1864C69.4161 34.6092 69.1593 33.9024 69.1593 33.0648V31.1448C69.1593 30.9408 69.1989 30.6816 69.2781 30.3648C69.4353 29.6856 69.7713 29.1372 70.2849 28.7172C70.7973 28.3008 71.3709 28.0896 72.0021 28.0896C72.9333 28.0896 73.6761 28.4688 74.2293 29.2272Z" fill="white"/>
<path fill-rule="evenodd" clip-rule="evenodd" d="M89.2492 36.5484C90.3088 35.412 90.838 33.864 90.838 31.9056C90.838 30.1524 90.3832 28.7388 89.4772 27.6636C88.5676 26.5896 87.4336 26.0532 86.0764 26.0532C84.3376 26.0532 83.0428 26.7396 82.1908 28.1148H82.1428L82 26.2896H79.75C79.8124 27.5856 79.8448 28.8492 79.8448 30.0804V42.4968H82.4032V36.4308H82.4512C83.1136 37.5204 84.2032 38.0652 85.72 38.0652C87.1252 38.0652 88.3024 37.56 89.2492 36.5484ZM87.472 29.2272C87.9784 29.9544 88.2316 30.8784 88.2316 31.9992C88.2316 33.216 87.9628 34.1952 87.4252 34.938C86.8888 35.6796 86.1388 36.0516 85.1752 36.0516C84.352 36.0516 83.6848 35.7624 83.1712 35.1864C82.66 34.6092 82.4032 33.9024 82.4032 33.0648V31.1448C82.4032 30.9408 82.444 30.6816 82.522 30.3648C82.6792 29.6856 83.014 29.1372 83.5276 28.7172C84.0412 28.3008 84.6136 28.0896 85.246 28.0896C86.1784 28.0896 86.9188 28.4688 87.472 29.2272Z" fill="white"/>
<path d="M105.646 33.3263C105.646 34.6847 105.175 35.7899 104.228 36.6431C103.188 37.5755 101.739 38.0411 99.8781 38.0411C98.1597 38.0411 96.7821 37.7099 95.7393 37.0463L96.3321 34.9139C97.4553 35.5931 98.6877 35.9339 100.03 35.9339C100.994 35.9339 101.744 35.7155 102.283 35.2811C102.819 34.8467 103.087 34.2635 103.087 33.5363C103.087 32.8883 102.866 32.3423 102.423 31.8995C101.983 31.4567 101.247 31.0451 100.22 30.6647C97.4241 29.6219 96.0273 28.0943 96.0273 26.0855C96.0273 24.7727 96.5169 23.6963 97.4973 22.8587C98.4741 22.0199 99.7773 21.6011 101.407 21.6011C102.86 21.6011 104.067 21.8543 105.031 22.3595L104.391 24.4451C103.491 23.9555 102.474 23.7107 101.335 23.7107C100.435 23.7107 99.7317 23.9327 99.2277 24.3743C98.8017 24.7691 98.5881 25.2503 98.5881 25.8203C98.5881 26.4515 98.8317 26.9735 99.3213 27.3839C99.7473 27.7631 100.521 28.1735 101.644 28.6163C103.018 29.1695 104.028 29.8163 104.677 30.5579C105.324 31.2971 105.646 32.2223 105.646 33.3263Z" fill="white"/>
<path d="M114.106 28.2096H111.286V33.8004C111.286 35.2224 111.782 35.9328 112.778 35.9328C113.236 35.9328 113.615 35.8932 113.915 35.814L113.986 37.7568C113.482 37.9452 112.818 38.04 111.996 38.04C110.986 38.04 110.196 37.7316 109.626 37.116C109.058 36.4992 108.773 35.4648 108.773 34.0116V28.2072H107.093V26.2872H108.773V24.1788L111.286 23.4204V26.2872H114.106V28.2096Z" fill="white"/>
<path fill-rule="evenodd" clip-rule="evenodd" d="M125.312 36.3118C126.322 35.1754 126.829 33.7222 126.829 31.9522C126.829 30.2302 126.339 28.825 125.357 27.7366C124.331 26.6146 122.972 26.0542 121.282 26.0542C119.529 26.0542 118.135 26.623 117.101 27.7606C116.066 28.897 115.55 30.3586 115.55 32.143C115.55 33.8482 116.051 35.263 117.055 36.3838C118.058 37.5046 119.403 38.065 121.093 38.065C122.846 38.065 124.252 37.4818 125.312 36.3118ZM123.488 29.3026C123.947 30.0622 124.174 30.973 124.174 32.035C124.174 33.0958 123.937 34.0162 123.465 34.7902C122.912 35.7238 122.145 36.1918 121.168 36.1918C120.171 36.1918 119.398 35.7334 118.845 34.8142C118.385 34.0558 118.159 33.145 118.159 32.083C118.159 30.9886 118.385 30.0634 118.845 29.3026C119.381 28.3846 120.163 27.925 121.191 27.925C122.185 27.925 122.951 28.3834 123.488 29.3026Z" fill="white"/>
<path d="M135.145 28.5396C134.892 28.4928 134.622 28.4688 134.339 28.4688C133.439 28.4688 132.743 28.8084 132.253 29.4888C131.827 30.0888 131.614 30.8472 131.614 31.7628V37.8048H129.056L129.08 29.916C129.08 28.5888 129.048 27.3804 128.984 26.2908H131.213L131.306 28.494H131.377C131.647 27.7368 132.073 27.1272 132.656 26.67C133.226 26.2584 133.842 26.0532 134.506 26.0532C134.742 26.0532 134.956 26.07 135.145 26.1V28.5396Z" fill="white"/>
<path fill-rule="evenodd" clip-rule="evenodd" d="M146.494 32.6624C146.557 32.3468 146.587 31.9605 146.587 31.502C146.587 30.0656 146.248 28.8561 145.572 27.878C144.719 26.6468 143.462 26.0312 141.803 26.0312C140.113 26.0312 138.77 26.6468 137.777 27.878C136.828 29.0312 136.354 30.4773 136.354 32.2137C136.354 33.9825 136.864 35.3924 137.881 36.4424C138.901 37.4924 140.303 38.0181 142.088 38.0181C143.573 38.0181 144.859 37.7816 145.949 37.3064L145.548 35.5304C144.616 35.894 143.579 36.0752 142.442 36.0752C141.415 36.0752 140.579 35.8064 139.932 35.2701C139.219 34.67 138.848 33.8 138.818 32.6624H146.494ZM143.651 28.8716C143.998 29.4248 144.164 30.08 144.148 30.8384V30.8372H138.818C138.896 30.0644 139.15 29.4008 139.576 28.8477C140.095 28.1516 140.776 27.8048 141.612 27.8048C142.528 27.8048 143.208 28.16 143.651 28.8716Z" fill="white"/>
<path fill-rule="evenodd" clip-rule="evenodd" d="M57.5903 15.2005C58.4363 14.4865 58.8599 13.4233 58.8599 12.0109C58.8599 10.7533 58.4675 9.78733 57.6851 9.11173C56.9867 8.51413 55.9511 8.21533 54.5771 8.21533C53.7995 8.21533 53.0795 8.27053 52.4111 8.37853V16.0957C52.9235 16.1581 53.5355 16.1893 54.2507 16.1893C55.6931 16.1893 56.8067 15.8593 57.5903 15.2005ZM56.8067 9.93853C57.2915 10.4281 57.5339 11.1301 57.5339 12.0457C57.5339 13.0705 57.2699 13.8505 56.7467 14.3857C56.2235 14.9209 55.4807 15.1885 54.5183 15.1885C54.1067 15.1885 53.8235 15.1777 53.6687 15.1537V9.28693C53.9483 9.23173 54.2855 9.20533 54.6815 9.20533C55.6139 9.20533 56.3219 9.45013 56.8067 9.93853Z" fill="white"/>
<path fill-rule="evenodd" clip-rule="evenodd" d="M65.1458 15.3865C65.6426 14.8273 65.891 14.1145 65.891 13.2445C65.891 12.3997 65.6498 11.7085 65.1698 11.1733C64.6646 10.6225 63.9974 10.3477 63.167 10.3477C62.3054 10.3477 61.6214 10.6273 61.1126 11.1853C60.6038 11.7433 60.3506 12.4621 60.3506 13.3381C60.3506 14.1757 60.5966 14.8705 61.0886 15.4213C61.5818 15.9733 62.243 16.2481 63.0734 16.2481C63.935 16.2481 64.625 15.9613 65.1458 15.3865ZM64.2494 11.9425C64.4738 12.3157 64.5866 12.7633 64.5866 13.2853C64.5866 13.8073 64.4702 14.2585 64.2374 14.6389C63.9662 15.0985 63.5894 15.3277 63.1094 15.3277C62.6198 15.3277 62.2406 15.1021 61.9682 14.6509C61.7438 14.2777 61.631 13.8301 61.631 13.3081C61.631 12.7705 61.7426 12.3157 61.9682 11.9425C62.2322 11.4913 62.6162 11.2657 63.1214 11.2657C63.6098 11.2657 63.9854 11.4913 64.2494 11.9425Z" fill="white"/>
<path d="M75.3181 10.4629L73.5481 16.1197H72.3961L71.6629 13.6633C71.4769 13.0501 71.3257 12.4405 71.2081 11.8357H71.1853C71.0761 12.4573 70.9249 13.0657 70.7305 13.6633L69.9517 16.1197H68.7865L67.1221 10.4629H68.4145L69.0541 13.1521C69.2089 13.7881 69.3361 14.3941 69.4381 14.9677H69.4609C69.5545 14.4949 69.7093 13.8925 69.9277 13.1641L70.7305 10.4641H71.7553L72.5245 13.1065C72.7105 13.7509 72.8617 14.3713 72.9781 14.9689H73.0129C73.0981 14.3869 73.2265 13.7665 73.3969 13.1065L74.0833 10.4641H75.3181V10.4629Z" fill="white"/>
<path d="M81.8373 16.1193H80.5797V12.8793C80.5797 11.8809 80.2005 11.3817 79.4397 11.3817C79.0665 11.3817 78.7653 11.5185 78.5313 11.7933C78.2997 12.0682 78.1821 12.3921 78.1821 12.7629V16.1182H76.9245V12.079C76.9245 11.5821 76.9089 11.0433 76.8789 10.4602H77.9841L78.0429 11.3446H78.0777C78.2241 11.0698 78.4425 10.8429 78.7293 10.6617C79.0701 10.4505 79.4517 10.3438 79.8693 10.3438C80.3973 10.3438 80.8365 10.5141 81.1857 10.8561C81.6201 11.2749 81.8373 11.9002 81.8373 12.7306V16.1193Z" fill="white"/>
<path d="M85.3052 16.1196H84.0488V7.86719H85.3052V16.1196Z" fill="white"/>
<path fill-rule="evenodd" clip-rule="evenodd" d="M91.9641 15.3865C92.4609 14.8273 92.7093 14.1145 92.7093 13.2445C92.7093 12.3997 92.4681 11.7085 91.9881 11.1733C91.4817 10.6225 90.8157 10.3477 89.9841 10.3477C89.1237 10.3477 88.4397 10.6273 87.9309 11.1853C87.4221 11.7433 87.1689 12.4621 87.1689 13.3381C87.1689 14.1757 87.4149 14.8705 87.9069 15.4213C88.3989 15.9733 89.0601 16.2481 89.8917 16.2481C90.7521 16.2481 91.4433 15.9613 91.9641 15.3865ZM91.0665 11.9425C91.2909 12.3157 91.4037 12.7633 91.4037 13.2853C91.4037 13.8073 91.2885 14.2585 91.0545 14.6389C90.7833 15.0985 90.4077 15.3277 89.9277 15.3277C89.4381 15.3277 89.0589 15.1021 88.7865 14.6509C88.5621 14.2777 88.4493 13.8301 88.4493 13.3081C88.4493 12.7705 88.5609 12.3157 88.7865 11.9425C89.0493 11.4913 89.4333 11.2657 89.9397 11.2657C90.4269 11.2657 90.8037 11.4913 91.0665 11.9425Z" fill="white"/>
<path fill-rule="evenodd" clip-rule="evenodd" d="M97.6671 16.1197H98.7963C98.7423 15.7861 98.7147 15.3361 98.7147 14.7709V12.6877C98.7147 11.1277 97.9731 10.3477 96.4947 10.3477C95.7291 10.3477 95.0799 10.5109 94.5543 10.8361L94.8099 11.6617C95.2347 11.3833 95.7267 11.2429 96.2847 11.2429C97.0683 11.2429 97.4595 11.6149 97.4595 12.3601V12.4657C96.4119 12.4573 95.5983 12.6361 95.0199 13.0009C94.4403 13.3657 94.1523 13.8925 94.1523 14.5837C94.1523 15.0409 94.2999 15.4261 94.5951 15.7357C94.9203 16.0765 95.3523 16.2481 95.8863 16.2481C96.6015 16.2481 97.1523 15.9877 97.5387 15.4681H97.5735L97.6671 16.1197ZM97.4907 13.3033V14.1757C97.4907 14.2609 97.4835 14.3353 97.4703 14.3965C97.4163 14.6689 97.2711 14.8909 97.0347 15.0661C96.7995 15.2401 96.5415 15.3277 96.2655 15.3277C96.0195 15.3277 95.8131 15.2545 95.6511 15.1069C95.4891 14.9593 95.4099 14.7385 95.4099 14.4433C95.4099 13.6597 96.1035 13.2793 97.4907 13.3033Z" fill="white"/>
<path fill-rule="evenodd" clip-rule="evenodd" d="M104.826 16.1196H105.942C105.912 15.654 105.898 15.1464 105.898 14.5956V7.86719H104.639V11.1144H104.615C104.312 10.602 103.781 10.3464 103.021 10.3464C102.33 10.3464 101.749 10.6104 101.275 11.1384C100.786 11.7048 100.542 12.4464 100.542 13.362C100.542 14.2152 100.766 14.91 101.216 15.4452C101.666 15.9804 102.234 16.248 102.916 16.248C103.769 16.248 104.376 15.9024 104.732 15.2112H104.767L104.826 16.1196ZM104.639 12.7908V13.734C104.639 14.1372 104.52 14.4828 104.278 14.7696C104.027 15.0804 103.697 15.2352 103.284 15.2352C102.824 15.2352 102.457 15.0492 102.185 14.6772C101.927 14.328 101.798 13.8744 101.798 13.3152C101.798 12.7332 101.934 12.2568 102.202 11.8836C102.472 11.5104 102.839 11.3244 103.308 11.3244C103.633 11.3244 103.915 11.4276 104.149 11.6328C104.381 11.838 104.533 12.0924 104.604 12.3948C104.627 12.4956 104.639 12.6276 104.639 12.7908Z" fill="white"/>
<path fill-rule="evenodd" clip-rule="evenodd" d="M115.952 15.3865C116.449 14.8273 116.698 14.1145 116.698 13.2445C116.698 12.3997 116.456 11.7085 115.976 11.1733C115.472 10.6225 114.804 10.3477 113.975 10.3477C113.112 10.3477 112.428 10.6273 111.919 11.1853C111.41 11.7433 111.157 12.4621 111.157 13.3381C111.157 14.1757 111.403 14.8705 111.895 15.4213C112.39 15.9733 113.051 16.2481 113.88 16.2481C114.743 16.2481 115.432 15.9613 115.952 15.3865ZM115.057 11.9425C115.282 12.3157 115.394 12.7633 115.394 13.2853C115.394 13.8073 115.277 14.2585 115.045 14.6389C114.774 15.0985 114.396 15.3277 113.916 15.3277C113.426 15.3277 113.047 15.1021 112.775 14.6509C112.55 14.2777 112.438 13.8301 112.438 13.3081C112.438 12.7705 112.549 12.3157 112.775 11.9425C113.04 11.4913 113.424 11.2657 113.928 11.2657C114.418 11.2657 114.792 11.4913 115.057 11.9425Z" fill="white"/>
<path d="M123.459 16.1193H122.203V12.8793C122.203 11.8809 121.824 11.3817 121.062 11.3817C120.688 11.3817 120.387 11.5185 120.154 11.7933C119.922 12.0682 119.805 12.3921 119.805 12.7629V16.1182H118.546V12.079C118.546 11.5821 118.532 11.0433 118.502 10.4602H119.606L119.665 11.3446H119.7C119.847 11.0698 120.066 10.8429 120.351 10.6617C120.693 10.4505 121.074 10.3438 121.492 10.3438C122.019 10.3438 122.458 10.5141 122.808 10.8561C123.243 11.2749 123.459 11.9002 123.459 12.7306V16.1193Z" fill="white"/>
<path d="M131.923 11.405H130.538V14.153C130.538 14.8514 130.784 15.2006 131.271 15.2006C131.497 15.2006 131.684 15.1814 131.832 15.1418L131.864 16.0958C131.616 16.1894 131.289 16.2362 130.887 16.2362C130.39 16.2362 130.004 16.085 129.724 15.7826C129.444 15.4802 129.304 14.9714 129.304 14.2574V11.405H128.478V10.463H129.304V9.4262L130.537 9.0542V10.4618H131.922V11.405H131.923Z" fill="white"/>
<path d="M138.581 16.1196H137.322V12.9036C137.322 11.8896 136.943 11.382 136.183 11.382C135.6 11.382 135.202 11.676 134.983 12.264C134.946 12.3876 134.924 12.5388 134.924 12.7164V16.1184H133.668V7.86719H134.924V11.2764H134.948C135.344 10.656 135.912 10.3464 136.648 10.3464C137.168 10.3464 137.599 10.5168 137.941 10.8588C138.367 11.2848 138.581 11.9184 138.581 12.756V16.1196Z" fill="white"/>
<path fill-rule="evenodd" clip-rule="evenodd" d="M145.401 13.5937C145.431 13.4389 145.448 13.2493 145.448 13.0237C145.448 12.3181 145.281 11.7241 144.944 11.2441C144.527 10.6393 143.909 10.3369 143.095 10.3369C142.263 10.3369 141.605 10.6393 141.117 11.2441C140.651 11.8105 140.419 12.5209 140.419 13.3741C140.419 14.2429 140.667 14.9353 141.169 15.4513C141.668 15.9673 142.358 16.2253 143.234 16.2253C143.965 16.2253 144.596 16.1089 145.133 15.8761L144.936 15.0025C144.477 15.1813 143.969 15.2701 143.411 15.2701C142.907 15.2701 142.495 15.1381 142.176 14.8741C141.827 14.5789 141.647 14.1529 141.63 13.5937H145.401ZM144.005 11.7325C144.175 12.0037 144.258 12.3253 144.248 12.6985H141.63C141.671 12.3181 141.794 11.9929 142.003 11.7205C142.259 11.3785 142.593 11.2081 143.004 11.2081C143.454 11.2081 143.786 11.3833 144.005 11.7325Z" fill="white"/>
</svg>
