<svg width="22" height="26" viewBox="0 0 22 26" fill="none" xmlns="http://www.w3.org/2000/svg">
<path fill-rule="evenodd" clip-rule="evenodd" d="M16.2341 0.21701C16.4001 1.72601 15.8021 3.21301 14.9281 4.30601C14.0161 5.38201 12.5571 6.20501 11.1361 6.09901C10.9501 4.64701 11.6701 3.10301 12.4761 2.16101C13.3871 1.09201 14.9691 0.27301 16.2341 0.21701ZM20.8859 8.9219C20.7273 9.01655 18.0993 10.5851 18.1281 13.784C18.1611 17.647 21.5071 18.924 21.5481 18.938C21.5281 19.028 21.0241 20.781 19.7691 22.561C18.7211 24.128 17.6231 25.66 15.8791 25.688C15.05 25.7071 14.4901 25.4687 13.9068 25.2202C13.2982 24.9611 12.6641 24.691 11.6721 24.691C10.6204 24.691 9.95811 24.9697 9.3194 25.2385C8.76719 25.4709 8.23257 25.6959 7.47909 25.727C5.81809 25.788 4.54909 24.054 3.46309 22.501C1.29209 19.33 -0.397912 13.565 1.86809 9.64201C2.96609 7.71801 4.96809 6.47901 7.10809 6.44601C8.05045 6.42674 8.95427 6.78991 9.7466 7.10828C10.3525 7.35175 10.8932 7.56901 11.3361 7.56901C11.7251 7.56901 12.2506 7.36043 12.8631 7.11733C13.8284 6.73422 15.0097 6.26537 16.2131 6.39201C17.0361 6.41601 19.3781 6.71701 20.8891 8.92001L20.8859 8.9219Z" fill="white"/>
</svg>
