<svg width="534" height="11" viewBox="0 0 534 11" fill="none" xmlns="http://www.w3.org/2000/svg">
<path opacity="0.2" fill-rule="evenodd" clip-rule="evenodd" d="M390.5 0.5L395.5 5.5L390.5 10.5V0.5Z" fill="#939393"/>
<path opacity="0.4" fill-rule="evenodd" clip-rule="evenodd" d="M423.5 0.5L428.5 5.5L423.5 10.5V0.5Z" fill="#939393"/>
<path opacity="0.6" fill-rule="evenodd" clip-rule="evenodd" d="M458.5 0.5L463.5 5.5L458.5 10.5V0.5Z" fill="#939393"/>
<path opacity="0.8" fill-rule="evenodd" clip-rule="evenodd" d="M493.5 0.5L498.5 5.5L493.5 10.5V0.5Z" fill="#939393"/>
<path fill-rule="evenodd" clip-rule="evenodd" d="M528.5 0.5L533.5 5.5L528.5 10.5V0.5Z" fill="#939393"/>
<path opacity="0.2" fill-rule="evenodd" clip-rule="evenodd" d="M0.5 0.5L5.5 5.5L0.5 10.5L0.5 0.5Z" fill="#939393"/>
<path opacity="0.4" fill-rule="evenodd" clip-rule="evenodd" d="M33.5 0.5L38.5 5.5L33.5 10.5V0.5Z" fill="#939393"/>
<path opacity="0.6" fill-rule="evenodd" clip-rule="evenodd" d="M68.5 0.5L73.5 5.5L68.5 10.5V0.5Z" fill="#939393"/>
<path opacity="0.8" fill-rule="evenodd" clip-rule="evenodd" d="M103.5 0.5L108.5 5.5L103.5 10.5V0.5Z" fill="#939393"/>
<path fill-rule="evenodd" clip-rule="evenodd" d="M138.5 0.5L143.5 5.5L138.5 10.5V0.5Z" fill="#939393"/>
</svg>
