<svg width="100" height="100" viewBox="0 0 100 100" fill="none" xmlns="http://www.w3.org/2000/svg">
<rect width="100" height="100" fill="white"/>
<path d="M46.1667 19.2C48.0963 19.2 49.6667 20.6806 49.6667 22.5C49.6667 24.3194 48.0963 25.8 46.1667 25.8C45.5215 25.8 45 26.2917 45 26.9C45 27.5083 45.5215 28 46.1667 28C49.3832 28 52 25.5327 52 22.5C52 19.4673 49.3832 17 46.1667 17C45.5215 17 45 17.4917 45 18.1C45 18.7083 45.5215 19.2 46.1667 19.2Z" fill="#555555"/>
<path d="M53.1667 19.2C55.0963 19.2 56.6667 20.6806 56.6667 22.5C56.6667 24.3194 55.0963 25.8 53.1667 25.8C52.5215 25.8 52 26.2917 52 26.9C52 27.5083 52.5215 28 53.1667 28C56.3832 28 59 25.5327 59 22.5C59 19.4673 56.3832 17 53.1667 17C52.5215 17 52 17.4917 52 18.1C52 18.7083 52.5215 19.2 53.1667 19.2Z" fill="#555555"/>
<path fill-rule="evenodd" clip-rule="evenodd" d="M60.2414 17C62.9895 17 65.287 18.9625 65.8161 21.5614H83V37.5263V82H17V37.5263V21.5614H34.1839C34.713 18.9625 37.0117 17 39.7586 17C42.8959 17 45.4483 19.5578 45.4483 22.7018C45.4483 25.8457 42.8959 28.4035 39.7586 28.4035C39.1293 28.4035 38.6207 27.8938 38.6207 27.2632C38.6207 26.6325 39.1293 26.1228 39.7586 26.1228C41.6408 26.1228 43.1724 24.5879 43.1724 22.7018C43.1724 20.8156 41.6408 19.2807 39.7586 19.2807C38.277 19.2807 37.0253 20.2363 36.5542 21.5614H38.6207C39.25 21.5614 39.7586 22.0711 39.7586 22.7018C39.7586 23.3324 39.25 23.8421 38.6207 23.8421H35.2069H19.2759V35.2456H80.7241V23.8421H65.8161C65.287 26.441 62.9883 28.4035 60.2414 28.4035C59.6121 28.4035 59.1034 27.8938 59.1034 27.2632C59.1034 26.6325 59.6121 26.1228 60.2414 26.1228C62.1235 26.1228 63.6552 24.5879 63.6552 22.7018C63.6552 20.8156 62.1235 19.2807 60.2414 19.2807C59.6121 19.2807 59.1034 18.771 59.1034 18.1404C59.1034 17.5097 59.6121 17 60.2414 17ZM19.2759 79.7193H80.7241V37.5263H19.2759V79.7193Z" fill="#555555"/>
<path fill-rule="evenodd" clip-rule="evenodd" d="M32.1669 52.1418C31.8683 52.1418 31.5696 52.0298 31.3421 51.807C30.886 51.3601 30.886 50.6378 31.3421 50.1909L38.3408 43.3346C38.4481 43.2294 38.5776 43.1449 38.7211 43.0866C39.007 42.9711 39.3278 42.9711 39.6124 43.0866C39.8983 43.202 40.1258 43.4249 40.2436 43.7049C40.3031 43.8443 40.3334 43.9929 40.3334 44.1415V72.7142H43.8334C44.4785 72.7142 45 73.2251 45 73.8571C45 74.4891 44.4785 75 43.8334 75H34.5002C33.8551 75 33.3336 74.4891 33.3336 73.8571C33.3336 73.2251 33.8551 72.7142 34.5002 72.7142H38.0001V46.9005L32.9918 51.807C32.7643 52.0298 32.4656 52.1418 32.1669 52.1418ZM60 75C55.0376 75 51 70.8983 51 65.8571C51 62.3486 52.9575 59.2994 55.8195 57.7669C53.6044 56.3497 52.125 53.8503 52.125 51C52.125 46.5897 55.6586 43 60 43C64.3414 43 67.875 46.5897 67.875 51C67.875 53.8503 66.3956 56.3497 64.1805 57.7669C67.0425 59.2994 69 62.3486 69 65.8571C69 70.8983 64.9624 75 60 75ZM54.375 51C54.375 47.8491 56.8984 45.2857 60 45.2857C63.1016 45.2857 65.625 47.8491 65.625 51C65.625 54.1509 63.1016 56.7143 60 56.7143C56.8984 56.7143 54.375 54.1509 54.375 51ZM66.75 65.8571C66.75 62.0754 63.7226 59 60 59C56.2774 59 53.25 62.0754 53.25 65.8571C53.25 69.6389 56.2774 72.7143 60 72.7143C63.7226 72.7143 66.75 69.6389 66.75 65.8571Z" fill="#2AB5CA"/>
</svg>
