<svg width="66" height="65" viewBox="0 0 66 65" fill="none" xmlns="http://www.w3.org/2000/svg">
<path d="M29.1667 2.2C31.0963 2.2 32.6667 3.6806 32.6667 5.5C32.6667 7.3194 31.0963 8.8 29.1667 8.8C28.5215 8.8 28 9.2917 28 9.9C28 10.5083 28.5215 11 29.1667 11C32.3832 11 35 8.5327 35 5.5C35 2.4673 32.3832 0 29.1667 0C28.5215 0 28 0.4917 28 1.1C28 1.7083 28.5215 2.2 29.1667 2.2Z" fill="#555555"/>
<path d="M36.1667 2.2C38.0963 2.2 39.6667 3.6806 39.6667 5.5C39.6667 7.3194 38.0963 8.8 36.1667 8.8C35.5215 8.8 35 9.2917 35 9.9C35 10.5083 35.5215 11 36.1667 11C39.3832 11 42 8.5327 42 5.5C42 2.4673 39.3832 0 36.1667 0C35.5215 0 35 0.4917 35 1.1C35 1.7083 35.5215 2.2 36.1667 2.2Z" fill="#555555"/>
<path fill-rule="evenodd" clip-rule="evenodd" d="M43.2414 0C45.9895 0 48.287 1.96254 48.8161 4.5614H66V20.5263V65H0V20.5263V4.5614H17.1839C17.713 1.96254 20.0117 0 22.7586 0C25.8959 0 28.4483 2.55781 28.4483 5.70175C28.4483 8.8457 25.8959 11.4035 22.7586 11.4035C22.1293 11.4035 21.6207 10.8938 21.6207 10.2632C21.6207 9.63254 22.1293 9.12281 22.7586 9.12281C24.6408 9.12281 26.1724 7.58789 26.1724 5.70175C26.1724 3.81561 24.6408 2.2807 22.7586 2.2807C21.277 2.2807 20.0253 3.23632 19.5542 4.5614H21.6207C22.25 4.5614 22.7586 5.07114 22.7586 5.70175C22.7586 6.33237 22.25 6.84211 21.6207 6.84211H18.2069H2.27586V18.2456H63.7241V6.84211H48.8161C48.287 9.44096 45.9883 11.4035 43.2414 11.4035C42.6121 11.4035 42.1034 10.8938 42.1034 10.2632C42.1034 9.63254 42.6121 9.12281 43.2414 9.12281C45.1235 9.12281 46.6552 7.58789 46.6552 5.70175C46.6552 3.81561 45.1235 2.2807 43.2414 2.2807C42.6121 2.2807 42.1034 1.77096 42.1034 1.14035C42.1034 0.509737 42.6121 0 43.2414 0ZM2.27586 62.7193H63.7241V20.5263H2.27586V62.7193Z" fill="#555555"/>
<path fill-rule="evenodd" clip-rule="evenodd" d="M15.1669 35.1418C14.8683 35.1418 14.5696 35.0298 14.3421 34.807C13.886 34.3601 13.886 33.6378 14.3421 33.1909L21.3408 26.3346C21.4481 26.2294 21.5776 26.1449 21.7211 26.0866C22.007 25.9711 22.3278 25.9711 22.6124 26.0866C22.8983 26.202 23.1258 26.4249 23.2436 26.7049C23.3031 26.8443 23.3334 26.9929 23.3334 27.1415V55.7142H26.8334C27.4785 55.7142 28 56.2251 28 56.8571C28 57.4891 27.4785 58 26.8334 58H17.5002C16.8551 58 16.3336 57.4891 16.3336 56.8571C16.3336 56.2251 16.8551 55.7142 17.5002 55.7142H21.0001V29.9005L15.9918 34.807C15.7643 35.0298 15.4656 35.1418 15.1669 35.1418ZM43 58C38.0376 58 34 53.8983 34 48.8571C34 45.3486 35.9575 42.2994 38.8195 40.7669C36.6044 39.3497 35.125 36.8503 35.125 34C35.125 29.5897 38.6586 26 43 26C47.3414 26 50.875 29.5897 50.875 34C50.875 36.8503 49.3956 39.3497 47.1805 40.7669C50.0425 42.2994 52 45.3486 52 48.8571C52 53.8983 47.9624 58 43 58ZM37.375 34C37.375 30.8491 39.8984 28.2857 43 28.2857C46.1016 28.2857 48.625 30.8491 48.625 34C48.625 37.1509 46.1016 39.7143 43 39.7143C39.8984 39.7143 37.375 37.1509 37.375 34ZM49.75 48.8571C49.75 45.0754 46.7226 42 43 42C39.2774 42 36.25 45.0754 36.25 48.8571C36.25 52.6389 39.2774 55.7143 43 55.7143C46.7226 55.7143 49.75 52.6389 49.75 48.8571Z" fill="#2AB5CA"/>
</svg>
