<svg width="71" height="71" viewBox="0 0 71 71" fill="none" xmlns="http://www.w3.org/2000/svg">
<path fill-rule="evenodd" clip-rule="evenodd" d="M35.5 0C15.8978 0 0 15.8978 0 35.5C0 55.1022 15.8978 71 35.5 71C55.1022 71 71 55.1022 71 35.5C71 15.8978 55.1022 0 35.5 0ZM35.5 67.913C17.5957 67.913 3.08696 53.4044 3.08696 35.5C3.08696 17.5957 17.5957 3.08696 35.5 3.08696C53.4044 3.08696 67.913 17.5957 67.913 35.5C67.913 53.4044 53.4044 67.913 35.5 67.913ZM37 9.4C37 10.28 36.325 11 35.5 11C34.675 11 34 10.28 34 9.4V8.6C34 7.72 34.675 7 35.5 7C36.325 7 37 7.72 37 8.6V9.4ZM35.5 60C34.675 60 34 60.72 34 61.6V62.4C34 63.28 34.675 64 35.5 64C36.325 64 37 63.28 37 62.4V61.6C37 60.72 36.325 60 35.5 60ZM8.6 34H9.4C10.28 34 11 34.675 11 35.5C11 36.325 10.28 37 9.4 37H8.6C7.72 37 7 36.325 7 35.5C7 34.675 7.72 34 8.6 34ZM62.4 34H61.6C60.72 34 60 34.675 60 35.5C60 36.325 60.72 37 61.6 37H62.4C63.28 37 64 36.325 64 35.5C64 34.675 63.28 34 62.4 34ZM16.5106 16.5106C17.1915 15.8298 18.2128 15.8298 18.8936 16.5106L19.4894 17.1064C20.1702 17.7872 20.1702 18.8085 19.4894 19.4894C19.1489 19.8298 18.7234 20 18.2979 20C17.8723 20 17.4468 19.8298 17.1064 19.4894L16.5106 18.8936C15.8298 18.2128 15.8298 17.1915 16.5106 16.5106ZM17.1064 53.5106L16.5106 54.1064C15.8298 54.7872 15.8298 55.8085 16.5106 56.4894C16.8511 56.8298 17.2766 57 17.7021 57C18.1277 57 18.5532 56.8298 18.8936 56.4894L19.4894 55.8936C20.1702 55.2128 20.1702 54.1915 19.4894 53.5106C18.8085 52.8298 17.7872 52.8298 17.1064 53.5106ZM53.5106 17.1064L54.1064 16.5106C54.7872 15.8298 55.8085 15.8298 56.4894 16.5106C57.1702 17.1915 57.1702 18.2128 56.4894 18.8936L55.8936 19.4894C55.5532 19.8298 55.1277 20 54.7021 20C54.2766 20 53.8511 19.8298 53.5106 19.4894C52.8298 18.8085 52.8298 17.7872 53.5106 17.1064Z" fill="#555555"/>
<path d="M37.0888 35.2962V21.5145C37.0888 20.6815 36.3938 20 35.5444 20C34.695 20 34 20.6815 34 21.5145V35.902C34 36.2806 34.1544 36.6592 34.4633 36.9621L51.3745 53.5457C51.6834 53.8486 52.0695 54 52.4556 54C52.8417 54 53.2278 53.8486 53.5367 53.5457C54.1544 52.9399 54.1544 52.0312 53.5367 51.4254L37.0888 35.2962Z" fill="#2AB5CA"/>
</svg>
