<svg width="100" height="100" viewBox="0 0 100 100" fill="none" xmlns="http://www.w3.org/2000/svg">
<rect width="100" height="100" fill="white"/>
<path fill-rule="evenodd" clip-rule="evenodd" d="M49.5 15C29.8978 15 14 30.8978 14 50.5C14 70.1022 29.8978 86 49.5 86C69.1022 86 85 70.1022 85 50.5C85 30.8978 69.1022 15 49.5 15ZM49.5 82.913C31.5957 82.913 17.087 68.4044 17.087 50.5C17.087 32.5957 31.5957 18.087 49.5 18.087C67.4044 18.087 81.913 32.5957 81.913 50.5C81.913 68.4044 67.4044 82.913 49.5 82.913ZM51 24.4C51 25.28 50.325 26 49.5 26C48.675 26 48 25.28 48 24.4V23.6C48 22.72 48.675 22 49.5 22C50.325 22 51 22.72 51 23.6V24.4ZM49.5 75C48.675 75 48 75.72 48 76.6V77.4C48 78.28 48.675 79 49.5 79C50.325 79 51 78.28 51 77.4V76.6C51 75.72 50.325 75 49.5 75ZM22.6 49H23.4C24.28 49 25 49.675 25 50.5C25 51.325 24.28 52 23.4 52H22.6C21.72 52 21 51.325 21 50.5C21 49.675 21.72 49 22.6 49ZM76.4 49H75.6C74.72 49 74 49.675 74 50.5C74 51.325 74.72 52 75.6 52H76.4C77.28 52 78 51.325 78 50.5C78 49.675 77.28 49 76.4 49ZM30.5106 31.5106C31.1915 30.8298 32.2128 30.8298 32.8936 31.5106L33.4894 32.1064C34.1702 32.7872 34.1702 33.8085 33.4894 34.4894C33.1489 34.8298 32.7234 35 32.2979 35C31.8723 35 31.4468 34.8298 31.1064 34.4894L30.5106 33.8936C29.8298 33.2128 29.8298 32.1915 30.5106 31.5106ZM31.1064 68.5106L30.5106 69.1064C29.8298 69.7872 29.8298 70.8085 30.5106 71.4894C30.8511 71.8298 31.2766 72 31.7021 72C32.1277 72 32.5532 71.8298 32.8936 71.4894L33.4894 70.8936C34.1702 70.2128 34.1702 69.1915 33.4894 68.5106C32.8085 67.8298 31.7872 67.8298 31.1064 68.5106ZM67.5106 32.1064L68.1064 31.5106C68.7872 30.8298 69.8085 30.8298 70.4894 31.5106C71.1702 32.1915 71.1702 33.2128 70.4894 33.8936L69.8936 34.4894C69.5532 34.8298 69.1277 35 68.7021 35C68.2766 35 67.8511 34.8298 67.5106 34.4894C66.8298 33.8085 66.8298 32.7872 67.5106 32.1064Z" fill="#555555"/>
<path d="M51.0888 50.2962V36.5145C51.0888 35.6815 50.3938 35 49.5444 35C48.695 35 48 35.6815 48 36.5145V50.902C48 51.2806 48.1544 51.6592 48.4633 51.9621L65.3745 68.5457C65.6834 68.8486 66.0695 69 66.4556 69C66.8417 69 67.2278 68.8486 67.5367 68.5457C68.1544 67.9399 68.1544 67.0312 67.5367 66.4254L51.0888 50.2962Z" fill="#2AB5CA"/>
</svg>
