<svg width="54" height="54" viewBox="0 0 54 54" fill="none" xmlns="http://www.w3.org/2000/svg">
<rect width="54" height="54" fill="white"/>
<path fill-rule="evenodd" clip-rule="evenodd" d="M14.8649 10.8H39.1347C41.3762 10.8 43.1998 12.6236 43.1998 14.8652V39.1349C43.1998 41.3765 41.3762 43.2001 39.1341 43.2001H14.8649C12.6234 43.2001 10.7998 41.3765 10.7998 39.1344V14.8652C10.7998 12.6236 12.6234 10.8 14.8649 10.8ZM39.1347 42.12C40.7806 42.12 42.1198 40.7808 42.1198 39.1349V14.8652C42.1198 13.2192 40.7806 11.88 39.1341 11.88H14.8649C13.219 11.88 11.8798 13.2192 11.8798 14.8652V39.1349C11.8798 40.7808 13.219 42.12 14.8649 42.12H39.1347Z" fill="#555555"/>
<path fill-rule="evenodd" clip-rule="evenodd" d="M17.8201 20.5201C19.3113 20.5201 20.5201 19.3113 20.5201 17.8201C20.5201 16.3289 19.3113 15.1201 17.8201 15.1201C16.3289 15.1201 15.1201 16.3289 15.1201 17.8201C15.1201 19.3113 16.3289 20.5201 17.8201 20.5201Z" fill="#2AB5CA"/>
</svg>
