<svg width="54" height="54" viewBox="0 0 54 54" fill="none" xmlns="http://www.w3.org/2000/svg">
<rect width="54" height="54" fill="white"/>
<path fill-rule="evenodd" clip-rule="evenodd" d="M15.2183 22.5314H20.2208H34.1122H39.1135H40.2401C40.9727 22.5314 41.5685 23.1336 41.5685 23.8729V34.204C41.5685 38.2285 38.3232 41.503 34.3344 41.503H19.9996C16.0097 41.503 12.7644 38.2285 12.7644 34.204V23.8729C12.7644 23.1336 13.3613 22.5314 14.0939 22.5314H15.2183ZM39.714 21.3207H40.2403C41.6347 21.3207 42.7697 22.4659 42.7697 23.8741V34.2052C42.7697 38.8975 38.9863 42.7161 34.3346 42.7161H32.2735V46.1626C32.2735 46.4971 32.0044 46.7685 31.6729 46.7685H22.6601C22.3286 46.7685 22.0596 46.4971 22.0596 46.1626V42.7161H19.9998C15.3481 42.7161 11.5635 38.8987 11.5635 34.2052V23.8741C11.5635 22.4659 12.6985 21.3207 14.0941 21.3207H14.6178V10.5897C14.6178 8.91855 15.9642 7.56006 17.6204 7.56006H17.8174C19.4737 7.56006 20.8201 8.91855 20.8201 10.5897V21.3207H33.5117V10.5897C33.5117 8.91855 34.8581 7.56006 36.5144 7.56006H36.7113C38.3676 7.56006 39.714 8.91855 39.714 10.5897V21.3207ZM34.7128 21.3207V10.5897C34.7128 9.5875 35.5211 8.77192 36.5144 8.77192H36.7113C37.7046 8.77192 38.513 9.5875 38.513 10.5897V21.3207H34.7128ZM19.6202 21.3207V10.5897C19.6202 9.5875 18.8119 8.77192 17.8186 8.77192H17.6204C16.6272 8.77192 15.8188 9.5875 15.8188 10.5897V21.3207H19.6202ZM31.0727 45.5566H23.2609V42.716H31.0727V45.5566Z" fill="#555555"/>
<path d="M25.3678 36.6214C25.2567 36.6214 25.1457 36.595 25.0461 36.5396C24.7794 36.3928 24.662 36.0884 24.7679 35.814L26.0838 32.4026L24.7845 32.0524C24.5764 31.997 24.4118 31.8454 24.348 31.6505C24.2854 31.4555 24.3301 31.2425 24.4705 31.0861L28.1426 26.9731C28.3366 26.7553 28.6672 26.6988 28.9314 26.8299C29.1969 26.9635 29.3283 27.2547 29.2441 27.5279L28.3226 30.541L29.6653 30.9032C29.8746 30.9586 30.0393 31.1114 30.1018 31.3075C30.1656 31.5049 30.1171 31.7179 29.9755 31.8731L25.8515 36.4109C25.7277 36.548 25.5477 36.6214 25.3678 36.6214Z" fill="#2AB5CA"/>
</svg>
