<svg width="24" height="24" viewBox="0 0 24 24" fill="none" xmlns="http://www.w3.org/2000/svg">
<path fill-rule="evenodd" clip-rule="evenodd" d="M2 11.9304C2 6.4548 6.4548 2 11.9304 2C17.4064 2 21.8608 6.4548 21.8608 11.9304C21.8608 17.4056 17.4056 21.8608 11.9304 21.8608C6.4548 21.8608 2 17.4056 2 11.9304ZM12.7844 12.28H14.4L14.6092 10.2452H12.7852V9.0492C12.7852 8.5996 13.0832 8.4948 13.2928 8.4948H14.5804V6.5192L12.8064 6.5124C10.8384 6.5124 10.3904 7.9856 10.3904 8.9284V10.2448H9.2524V12.28H10.3904V18.0384H12.7844V12.28Z" fill="black"/>
<mask id="mask0_4921_417" style="mask-type:luminance" maskUnits="userSpaceOnUse" x="2" y="2" width="20" height="20">
<path fill-rule="evenodd" clip-rule="evenodd" d="M2 11.9304C2 6.4548 6.4548 2 11.9304 2C17.4064 2 21.8608 6.4548 21.8608 11.9304C21.8608 17.4056 17.4056 21.8608 11.9304 21.8608C6.4548 21.8608 2 17.4056 2 11.9304ZM12.7844 12.28H14.4L14.6092 10.2452H12.7852V9.0492C12.7852 8.5996 13.0832 8.4948 13.2928 8.4948H14.5804V6.5192L12.8064 6.5124C10.8384 6.5124 10.3904 7.9856 10.3904 8.9284V10.2448H9.2524V12.28H10.3904V18.0384H12.7844V12.28Z" fill="white"/>
</mask>
<g mask="url(#mask0_4921_417)">
<rect width="24" height="24" fill="#939393"/>
</g>
</svg>
