<svg width="24" height="26" viewBox="0 0 24 26" fill="none" xmlns="http://www.w3.org/2000/svg">
<path fill-rule="evenodd" clip-rule="evenodd" d="M0.527319 0.608209C0.524197 0.61109 0.521087 0.61399 0.517988 0.616907L0.536 0.598895C0.77164 0.387126 1.07342 0.273895 1.42 0.273895C1.758 0.273895 2.139 0.381895 2.541 0.610895L17.149 8.9109L22.042 11.6909C23.439 12.4849 23.439 13.7849 22.042 14.5799L17.149 17.3599L17.0823 17.3968L2.541 25.6589C1.93385 26.0039 1.37488 26.0739 0.936996 25.9118C0.788781 25.857 0.654409 25.7755 0.536742 25.6692L0.517484 25.6514C0.498884 25.6339 0.480719 25.6157 0.463 25.5969C0.172 25.2899 0 24.8129 0 24.1929V2.0769C0 1.4579 0.172 0.979895 0.463 0.671895C0.533576 0.602463 0.530441 0.605327 0.527319 0.608209C0.505273 0.628556 0.483827 0.649788 0.463 0.671895L12.926 13.1349L0.463 25.5969L17.149 8.9109L12.926 13.1349L0.527319 0.608209Z" fill="white"/>
</svg>
