<svg width="24" height="24" viewBox="0 0 24 24" fill="none" xmlns="http://www.w3.org/2000/svg">
<path fill-rule="evenodd" clip-rule="evenodd" d="M11.9304 2C6.4548 2 2 6.4548 2 11.9304C2 17.4056 6.4548 21.8608 11.9304 21.8608C17.4056 21.8608 21.8608 17.4056 21.8608 11.9304C21.8608 6.4548 17.4064 2 11.9304 2ZM17.578 10.7716V15.3956C17.578 16.6 16.5988 17.5788 15.3952 17.5788H8.4656C7.2616 17.5788 6.2828 16.6 6.2828 15.3956V10.7716V8.466C6.2828 7.262 7.2616 6.2832 8.4656 6.2832H15.3948C16.5988 6.2832 17.578 7.262 17.578 8.466V10.7716ZM13.9188 11.9304C13.9188 13.0268 13.0256 13.9184 11.93 13.9184C10.834 13.9184 9.9416 13.0264 9.9428 11.93C9.9432 11.4972 10.0836 11.0976 10.3188 10.7712C10.6808 10.2704 11.2676 9.9424 11.9312 9.9424C12.5944 9.9424 13.1816 10.2708 13.5428 10.7716C13.7772 11.098 13.9188 11.4976 13.9188 11.9304ZM16.2712 9.4984V7.832V7.584L16.022 7.5848L14.3564 7.59L14.3628 9.5048L16.2712 9.4984ZM11.9304 15.0196C13.634 15.0196 15.0196 13.6332 15.0196 11.9304C15.0196 11.5208 14.9368 11.1292 14.79 10.7716H16.4768V15.3956C16.4768 15.9932 15.9908 16.4772 15.3944 16.4772H8.4652C7.868 16.4772 7.3828 15.9932 7.3828 15.3956V10.7716H9.0688C8.9232 11.1292 8.8416 11.5208 8.8416 11.9304C8.8416 13.6332 10.2268 15.0196 11.9304 15.0196Z" fill="black"/>
<mask id="mask0_4921_400" style="mask-type:luminance" maskUnits="userSpaceOnUse" x="2" y="2" width="20" height="20">
<path fill-rule="evenodd" clip-rule="evenodd" d="M11.9304 2C6.4548 2 2 6.4548 2 11.9304C2 17.4056 6.4548 21.8608 11.9304 21.8608C17.4056 21.8608 21.8608 17.4056 21.8608 11.9304C21.8608 6.4548 17.4064 2 11.9304 2ZM17.578 10.7716V15.3956C17.578 16.6 16.5988 17.5788 15.3952 17.5788H8.4656C7.2616 17.5788 6.2828 16.6 6.2828 15.3956V10.7716V8.466C6.2828 7.262 7.2616 6.2832 8.4656 6.2832H15.3948C16.5988 6.2832 17.578 7.262 17.578 8.466V10.7716ZM13.9188 11.9304C13.9188 13.0268 13.0256 13.9184 11.93 13.9184C10.834 13.9184 9.9416 13.0264 9.9428 11.93C9.9432 11.4972 10.0836 11.0976 10.3188 10.7712C10.6808 10.2704 11.2676 9.9424 11.9312 9.9424C12.5944 9.9424 13.1816 10.2708 13.5428 10.7716C13.7772 11.098 13.9188 11.4976 13.9188 11.9304ZM16.2712 9.4984V7.832V7.584L16.022 7.5848L14.3564 7.59L14.3628 9.5048L16.2712 9.4984ZM11.9304 15.0196C13.634 15.0196 15.0196 13.6332 15.0196 11.9304C15.0196 11.5208 14.9368 11.1292 14.79 10.7716H16.4768V15.3956C16.4768 15.9932 15.9908 16.4772 15.3944 16.4772H8.4652C7.868 16.4772 7.3828 15.9932 7.3828 15.3956V10.7716H9.0688C8.9232 11.1292 8.8416 11.5208 8.8416 11.9304C8.8416 13.6332 10.2268 15.0196 11.9304 15.0196Z" fill="white"/>
</mask>
<g mask="url(#mask0_4921_400)">
<rect width="24" height="24" fill="#939393"/>
</g>
</svg>
