<svg width="175" height="28" viewBox="0 0 175 28" fill="none" xmlns="http://www.w3.org/2000/svg">
<path fill-rule="evenodd" clip-rule="evenodd" d="M164.938 0H172.99C173.625 0 174.14 0.447077 174.14 0.998573V7.98859C174.14 8.54008 173.625 8.98716 172.99 8.98716H164.938C164.303 8.98716 163.788 8.54008 163.788 7.98859V0.998573C163.788 0.447077 164.303 0 164.938 0ZM167.239 3.35727H168.788V7.4893H170.114V1.49786H169.038C169.038 1.5502 169.021 1.63008 168.988 1.73752C168.93 1.91657 168.845 2.05982 168.733 2.16725C168.57 2.32427 168.358 2.42894 168.097 2.48128C167.934 2.51434 167.648 2.53913 167.239 2.55566V3.35727ZM0.860352 27.4608V8.42596H17.0721V12.1197H6.3264V15.5708H16.3578V19.1836H6.3264V23.7131H18.0349V27.4608H0.860352ZM20.9232 27.4608V8.399H26.3893V23.4435H34.961V27.4608H20.9232ZM37.7562 27.4608V8.42596H53.9679V12.1197H43.2222V15.5708H53.2536V19.1836H43.2222V23.7131H54.9307V27.4608H37.7562ZM74.0618 8.42596H82.0435V27.4608H76.7949L77.1365 13.8991L77.1986 11.9849L77.0123 12.6589C76.7327 13.7374 76.7017 13.8722 76.4532 14.681L72.3227 27.4608H67.602L63.6267 15.2203L62.6639 11.8231C62.7571 13.333 62.7571 13.6565 62.8503 15.4629L63.1298 27.4608H57.819V8.42596H65.8317L69.1859 19.1027L69.9623 22.1494C70.2729 20.8282 70.3039 20.6934 70.5524 19.8037L74.0618 8.42596ZM86.2983 27.4608V8.42596H102.51V12.1197H91.7644V15.5708H101.796V19.1836H91.7644V23.7131H103.473V27.4608H86.2983ZM106.33 27.4608V8.42596H111.703L116.455 15.4359C118.194 18.1051 118.722 18.9679 119.747 20.6395L119.498 8.42596H124.747V27.4608H119.374L115.275 21.4484C113.287 18.6174 112.914 18.0243 111.423 15.4899L111.579 27.4608H106.33ZM127.107 12.1736V8.399H144.002V12.1736H138.319V27.4608H132.822V12.1736H127.107ZM163.444 26.0048C161.301 27.5417 158.817 28 156.549 28C149.593 28 145.648 23.3626 145.648 17.8625C145.648 12.7128 149.406 7.83281 156.456 7.83281C157.761 7.83281 159.127 7.99458 160.463 8.399C167.171 10.4211 167.606 16.7571 167.606 18.0512C167.606 21.3405 165.867 24.3063 163.444 26.0048ZM162.109 18.3748C162.202 16.3796 161.581 14.3575 160.338 13.1981C159.407 12.3354 157.978 11.7962 156.487 11.7962C153.164 11.7962 151.052 14.3305 151.052 17.7816C151.052 22.3111 153.972 23.9827 156.549 23.9827C159.158 23.9827 161.953 22.365 162.109 18.3748Z" fill="#B3BDBC"/>
</svg>
