<svg width="144" height="28" viewBox="0 0 144 28" fill="none" xmlns="http://www.w3.org/2000/svg">
<path fill-rule="evenodd" clip-rule="evenodd" d="M136.353 0H143.044C143.572 0 144 0.447077 144 0.998573V7.98859C144 8.54008 143.572 8.98716 143.044 8.98716H136.353C135.825 8.98716 135.397 8.54008 135.397 7.98859V0.998573C135.397 0.447077 135.825 0 136.353 0ZM138.265 3.35727H139.552V7.4893H140.654V1.49786H139.76C139.76 1.5502 139.746 1.63008 139.718 1.73752C139.67 1.91657 139.6 2.05982 139.507 2.16725C139.371 2.32427 139.195 2.42894 138.978 2.48128C138.842 2.51434 138.604 2.53913 138.265 2.55566V3.35727ZM0 27.4608V8.42596H13.4724V12.1197H4.54242V15.5708H12.8788V19.1836H4.54242V23.7131H14.2725V27.4608H0ZM16.6727 27.4608V8.399H21.2152V23.4435H28.3385V27.4608H16.6727ZM30.6613 27.4608V8.42596H44.1337V12.1197H35.2037V15.5708H43.5401V19.1836H35.2037V23.7131H44.9338V27.4608H30.6613ZM60.8323 8.42596H67.4652V27.4608H63.1035L63.3874 13.8991L63.439 11.9849L63.2841 12.6589C63.0519 13.7374 63.0261 13.8722 62.8196 14.681L59.387 27.4608H55.464L52.1604 15.2203L51.3603 11.8231C51.4377 13.333 51.4377 13.6565 51.5152 15.4629L51.7474 27.4608H47.3341V8.42596H53.9928L56.7802 19.1027L57.4255 22.1494C57.6835 20.8282 57.7094 20.6934 57.9158 19.8037L60.8323 8.42596ZM71.0011 27.4608V8.42596H84.4735V12.1197H75.5435V15.5708H83.8799V19.1836H75.5435V23.7131H85.2736V27.4608H71.0011ZM87.648 27.4608V8.42596H92.113L96.0618 15.4359C97.5071 18.1051 97.9459 18.9679 98.7976 20.6395L98.5911 8.42596H102.953V27.4608H98.4879L95.0811 21.4484C93.4293 18.6174 93.1196 18.0243 91.8807 15.4899L92.0098 27.4608H87.648ZM104.914 12.1736V8.399H118.955V12.1736H114.231V27.4608H109.663V12.1736H104.914ZM135.111 26.0048C133.33 27.5417 131.266 28 129.381 28C123.6 28 120.322 23.3626 120.322 17.8625C120.322 12.7128 123.445 7.83281 129.304 7.83281C130.388 7.83281 131.524 7.99458 132.633 8.399C138.208 10.4211 138.57 16.7571 138.57 18.0512C138.57 21.3405 137.124 24.3063 135.111 26.0048ZM134.001 18.3748C134.079 16.3796 133.563 14.3575 132.53 13.1981C131.756 12.3354 130.569 11.7961 129.33 11.7961C126.568 11.7961 124.813 14.3305 124.813 17.7816C124.813 22.3111 127.239 23.9827 129.381 23.9827C131.549 23.9827 133.872 22.365 134.001 18.3748Z" fill="#2AB5CA"/>
</svg>
