<svg width="38" height="57" viewBox="0 0 38 57" fill="none" xmlns="http://www.w3.org/2000/svg">
<path d="M37.543 57H1.20898V51.9346L20.4043 30.6064C23.248 27.3818 25.2031 24.7666 26.2695 22.7607C27.3613 20.7295 27.9072 18.6348 27.9072 16.4766C27.9072 13.582 27.0312 11.208 25.2793 9.35449C23.5273 7.50098 21.1914 6.57422 18.2715 6.57422C14.7676 6.57422 12.0381 7.57715 10.083 9.58301C8.15332 11.5635 7.18848 14.3311 7.18848 17.8857H0.142578C0.142578 12.7822 1.78027 8.65625 5.05566 5.50781C8.35645 2.35937 12.7617 0.785156 18.2715 0.785156C23.4258 0.785156 27.501 2.14355 30.4971 4.86035C33.4932 7.55176 34.9912 11.1445 34.9912 15.6387C34.9912 21.0977 31.5127 27.5977 24.5557 35.1387L9.70215 51.249H37.543V57Z" fill="#F4F4F4"/>
</svg>
