<svg width="36" height="58" viewBox="0 0 36 58" fill="none" xmlns="http://www.w3.org/2000/svg">
<path d="M11.4541 25.8457H16.748C20.0742 25.7949 22.6895 24.9189 24.5938 23.2178C26.498 21.5166 27.4502 19.2188 27.4502 16.3242C27.4502 9.82422 24.2129 6.57422 17.7383 6.57422C14.6914 6.57422 12.2539 7.4502 10.4258 9.20215C8.62305 10.9287 7.72168 13.2266 7.72168 16.0957H0.675781C0.675781 11.7031 2.27539 8.05957 5.47461 5.16504C8.69922 2.24512 12.7871 0.785156 17.7383 0.785156C22.9688 0.785156 27.0693 2.16895 30.04 4.93652C33.0107 7.7041 34.4961 11.5508 34.4961 16.4766C34.4961 18.8887 33.709 21.2246 32.1348 23.4844C30.5859 25.7441 28.4658 27.4326 25.7744 28.5498C28.8213 29.5146 31.1699 31.1143 32.8203 33.3486C34.4961 35.583 35.334 38.3125 35.334 41.5371C35.334 46.5137 33.709 50.4619 30.459 53.3818C27.209 56.3018 22.9814 57.7617 17.7764 57.7617C12.5713 57.7617 8.33105 56.3525 5.05566 53.5342C1.80566 50.7158 0.180664 46.9961 0.180664 42.375H7.26465C7.26465 45.2949 8.2168 47.6309 10.1211 49.3828C12.0254 51.1348 14.5771 52.0107 17.7764 52.0107C21.1787 52.0107 23.7812 51.1221 25.584 49.3447C27.3867 47.5674 28.2881 45.0156 28.2881 41.6895C28.2881 38.4648 27.2979 35.9893 25.3174 34.2627C23.3369 32.5361 20.4805 31.6475 16.748 31.5967H11.4541V25.8457Z" fill="#F4F4F4"/>
</svg>
