<svg width="828" height="142" viewBox="0 0 828 142" fill="none" xmlns="http://www.w3.org/2000/svg">
<path d="M787.744 56.8633H795.074C799.68 56.793 803.301 55.5801 805.938 53.2246C808.574 50.8691 809.893 47.6875 809.893 43.6797C809.893 34.6797 805.41 30.1797 796.445 30.1797C792.227 30.1797 788.852 31.3926 786.32 33.8184C783.824 36.209 782.576 39.3906 782.576 43.3633H772.82C772.82 37.2812 775.035 32.2363 779.465 28.2285C783.93 24.1855 789.59 22.1641 796.445 22.1641C803.688 22.1641 809.365 24.0801 813.479 27.9121C817.592 31.7441 819.648 37.0703 819.648 43.8906C819.648 47.2305 818.559 50.4648 816.379 53.5938C814.234 56.7227 811.299 59.0605 807.572 60.6074C811.791 61.9434 815.043 64.1582 817.328 67.252C819.648 70.3457 820.809 74.125 820.809 78.5898C820.809 85.4805 818.559 90.9473 814.059 94.9902C809.559 99.0332 803.705 101.055 796.498 101.055C789.291 101.055 783.42 99.1035 778.885 95.2012C774.385 91.2988 772.135 86.1484 772.135 79.75H781.943C781.943 83.793 783.262 87.0273 785.898 89.4531C788.535 91.8789 792.068 93.0918 796.498 93.0918C801.209 93.0918 804.812 91.8613 807.309 89.4004C809.805 86.9395 811.053 83.4062 811.053 78.8008C811.053 74.3359 809.682 70.9082 806.939 68.5176C804.197 66.127 800.242 64.8965 795.074 64.8262H787.744V56.8633Z" fill="#F4F4F4"/>
<path d="M443.867 100H393.559V92.9863L420.137 63.4551C424.074 58.9902 426.781 55.3691 428.258 52.5918C429.77 49.7793 430.525 46.8789 430.525 43.8906C430.525 39.8828 429.312 36.5957 426.887 34.0293C424.461 31.4629 421.227 30.1797 417.184 30.1797C412.332 30.1797 408.553 31.5684 405.846 34.3457C403.174 37.0879 401.838 40.9199 401.838 45.8418H392.082C392.082 38.7754 394.35 33.0625 398.885 28.7031C403.455 24.3437 409.555 22.1641 417.184 22.1641C424.32 22.1641 429.963 24.0449 434.111 27.8066C438.26 31.5332 440.334 36.5078 440.334 42.7305C440.334 50.2891 435.518 59.2891 425.885 69.7305L405.318 92.0371H443.867V100Z" fill="#F4F4F4"/>
<path d="M38.6211 100H28.8125V34.9785L9.14258 42.2031V33.3438L37.0918 22.8496H38.6211V100Z" fill="#F4F4F4"/>
</svg>
