<svg width="24" height="24" viewBox="0 0 24 24" fill="none" xmlns="http://www.w3.org/2000/svg">
<path fill-rule="evenodd" clip-rule="evenodd" d="M11 19V11.16H6.54286C6.54286 11.16 5.62857 10.04 6.08571 8.696C6.54286 6.904 8.82857 6.568 8.82857 6.568L8.14286 5C8.14286 5 3 5.672 3 11.048V19H11ZM21 19V11.16H16.5429C16.5429 11.16 15.6286 10.04 16.0857 8.696C16.5429 6.904 18.8286 6.568 18.8286 6.568L18.1429 5C18.1429 5 13 5.672 13 11.048V19H21Z" fill="#3C88B5"/>
<mask id="mask0_0_1067" style="mask-type:luminance" maskUnits="userSpaceOnUse" x="3" y="5" width="18" height="14">
<path fill-rule="evenodd" clip-rule="evenodd" d="M11 19V11.16H6.54286C6.54286 11.16 5.62857 10.04 6.08571 8.696C6.54286 6.904 8.82857 6.568 8.82857 6.568L8.14286 5C8.14286 5 3 5.672 3 11.048V19H11ZM21 19V11.16H16.5429C16.5429 11.16 15.6286 10.04 16.0857 8.696C16.5429 6.904 18.8286 6.568 18.8286 6.568L18.1429 5C18.1429 5 13 5.672 13 11.048V19H21Z" fill="white"/>
</mask>
<g mask="url(#mask0_0_1067)">
<rect width="24" height="24" fill="#2AB5CA"/>
</g>
</svg>
