<svg width="40" height="40" viewBox="0 0 40 40" fill="none" xmlns="http://www.w3.org/2000/svg">
<path fill-rule="evenodd" clip-rule="evenodd" d="M13.3391 2.01795C13.3391 0.923085 14.2422 0.0200195 15.337 0.0200195H18.0009C19.0958 0.0200195 19.9989 0.923085 19.9989 2.01795V4.55932C21.0045 4.83637 21.9702 5.23596 22.8759 5.75542L25.3666 3.26466C26.1392 2.48946 27.4179 2.48946 28.1904 3.26466L30.0738 5.14938C30.849 5.92191 30.849 7.20059 30.0738 7.97313L27.5937 10.4572C28.1065 11.3683 28.5034 12.3326 28.7791 13.3396H31.3205C32.4154 13.3396 33.3184 14.2426 33.3184 15.3375V18.0014C33.3184 18.8699 31.9865 18.8912 31.9865 18.0014V15.3375C31.9865 14.9566 31.7014 14.6715 31.3205 14.6715H28.3422C28.0306 14.6715 27.7602 14.4558 27.6896 14.1521C27.4099 12.9094 26.925 11.7279 26.2511 10.649C26.0859 10.3826 26.1245 10.0417 26.3443 9.82321L29.1281 7.03143C29.3971 6.76238 29.3971 6.3588 29.1281 6.08974L27.2447 4.20636C26.9756 3.9373 26.5721 3.9373 26.303 4.20636L23.5059 7.00346C23.2848 7.2219 22.9425 7.26053 22.6801 7.0967C21.6025 6.41873 20.4211 5.92857 19.1824 5.6462C18.876 5.57561 18.6629 5.30522 18.6629 4.99354V2.01795C18.6629 1.63701 18.3779 1.35198 17.9969 1.35198H15.333C14.9521 1.35198 14.667 1.63701 14.667 2.01795V4.99487C14.667 5.30788 14.4513 5.57827 14.1476 5.64753C12.8995 5.93124 11.7061 6.4214 10.6219 7.10336C10.3555 7.26852 10.0159 7.22989 9.79609 7.01012L6.99498 4.20769C6.72593 3.93863 6.31835 3.93863 6.04929 4.20769L4.16591 6.09107C3.89685 6.36013 3.89685 6.76371 4.16591 7.03277L6.98699 9.84985C7.20676 10.071 7.24672 10.4119 7.08023 10.6757C6.41025 11.7466 5.92542 12.9227 5.64571 14.1521C5.57512 14.4584 5.30473 14.6715 4.99305 14.6715H2.01746C1.63653 14.6715 1.35149 14.9566 1.35149 15.3375V18.0014C1.35149 18.3824 1.63653 18.6674 2.01746 18.6674H4.99439C5.30739 18.6674 5.57778 18.8805 5.64704 19.1869C5.92809 20.4256 6.41558 21.611 7.09222 22.6899C7.25605 22.951 7.21875 23.2906 7.00297 23.5104L7.00031 23.5144L6.99498 23.5197L4.16724 26.3435C3.90085 26.6125 3.90085 27.0201 4.16724 27.2891L6.04929 29.1739C6.31968 29.4403 6.72859 29.4403 6.99498 29.1739L9.81606 26.3501L9.82006 26.3448L9.82805 26.3315C10.0478 26.1144 10.3888 26.0757 10.6499 26.2409C11.7288 26.9202 12.9142 27.4104 14.1529 27.6927C14.4593 27.7633 14.6724 28.0337 14.6724 28.3454V31.321C14.6724 31.7019 14.9574 31.987 15.3384 31.987H18.0023C18.8814 31.987 18.8867 33.3189 18.0023 33.3189H15.3384C14.2435 33.3189 13.3404 32.4158 13.3404 31.321V28.7796C12.3335 28.5026 11.3691 28.103 10.4634 27.5835L7.93667 30.1142C7.16014 30.8894 5.88413 30.8894 5.10893 30.1142L3.22555 28.2308C2.45035 27.4543 2.45035 26.1783 3.22555 25.4031L5.74827 22.8817C5.23414 21.9706 4.83455 21.0076 4.55884 19.9994H2.01746C0.922597 19.9994 0.0195312 19.0963 0.0195312 18.0014V15.3375C0.0195312 14.2426 0.922597 13.3396 2.01746 13.3396H4.55617C4.83189 12.3419 5.22881 11.3869 5.73762 10.4852L3.22422 7.97179C2.45168 7.19926 2.45168 5.92058 3.22422 5.14805L5.1076 3.266C5.88413 2.4908 7.16014 2.4908 7.93534 3.266L10.4328 5.76075C11.3491 5.24128 12.3228 4.8417 13.3391 4.56199V2.01795ZM16.6691 10.6757C13.3658 10.6757 10.6753 13.3662 10.6753 16.6695C10.6753 19.9727 13.3658 22.6633 16.6691 22.6633C19.9723 22.6633 22.6629 19.9727 22.6629 16.6695C22.6629 13.3662 19.9723 10.6757 16.6691 10.6757ZM16.669 12.0076C19.253 12.0076 21.3308 14.0855 21.3308 16.6695C21.3308 19.2535 19.253 21.3313 16.669 21.3313C14.085 21.3313 12.0072 19.2535 12.0072 16.6695C12.0072 14.0855 14.085 12.0076 16.669 12.0076Z" fill="#555555"/>
<path fill-rule="evenodd" clip-rule="evenodd" d="M27.9908 21.9973C27.9908 20.9025 28.8938 19.9994 29.9887 19.9994C31.0836 19.9994 31.9866 20.9025 31.9866 21.9973V23.0362C32.5114 23.1908 33.0122 23.3959 33.4917 23.6623L33.9113 23.2454C34.6838 22.4688 35.9625 22.4688 36.735 23.2454C37.5102 24.0179 37.5102 25.2939 36.735 26.0691L36.3168 26.486C36.5805 26.9655 36.7843 27.4677 36.9362 27.9911H37.9818C39.0766 27.9911 39.9797 28.8942 39.9797 29.9891C39.9797 31.0839 39.0766 31.987 37.9818 31.987H36.9428C36.7883 32.5118 36.5832 33.0126 36.3168 33.4921L36.7337 33.9117C37.5102 34.6842 37.5102 35.9629 36.7337 36.7354C35.9612 37.5106 34.6852 37.5106 33.91 36.7354L33.4931 36.3172C33.0136 36.5809 32.5114 36.7847 31.988 36.9365V37.9821C31.988 39.077 31.0849 39.9801 29.99 39.9801C28.8952 39.9801 27.9921 39.077 27.9921 37.9821V36.9432C27.4673 36.7887 26.9665 36.5836 26.487 36.3172L26.0674 36.7341C25.2949 37.5106 24.0162 37.5106 23.2437 36.7341C22.4685 35.9615 22.4685 34.6855 23.2437 33.9103L23.6619 33.4934C23.3982 33.0139 23.1944 32.5118 23.0425 31.9883H21.997C20.9021 31.9883 19.999 31.0853 19.999 29.9904C19.999 28.8955 20.9021 27.9925 21.997 27.9925H23.0359C23.1904 27.4677 23.3955 26.9668 23.6619 26.4873L23.245 26.0678C22.4685 25.2952 22.4685 24.0166 23.245 23.244C24.0175 22.4688 25.2935 22.4688 26.0687 23.244L26.4856 23.6623C26.9651 23.3985 27.4673 23.1948 27.9908 23.0429V21.9973ZM30.6548 21.9973C30.6548 21.6164 30.3698 21.3314 29.9888 21.3314C29.6079 21.3314 29.3228 21.6164 29.3228 21.9973V23.3293L29.3229 23.3615C29.324 23.6117 29.3256 24.0004 28.8127 24.1178C28.0548 24.2697 27.3329 24.568 26.6856 24.9942C26.4218 25.1687 26.0715 25.1328 25.8491 24.909L25.1258 24.1857C24.8568 23.9167 24.4532 23.9167 24.1841 24.1857C23.9151 24.4548 23.9151 24.8584 24.1841 25.1274L24.9074 25.8507C25.1312 26.0745 25.1658 26.4261 24.99 26.6898C24.5638 27.3358 24.2641 28.0577 24.1109 28.817C24.0256 29.1326 23.9204 29.3231 23.3277 29.3231H21.9957C21.6148 29.3231 21.3298 29.6081 21.3298 29.9891C21.3298 30.37 21.6148 30.655 21.9957 30.655H23.3277C23.7672 30.655 24.0496 30.8295 24.1162 31.1652C24.2681 31.9231 24.5664 32.645 24.9926 33.2923C25.1671 33.556 25.1312 33.9064 24.9074 34.1288L24.1841 34.852C23.9151 35.1211 23.9151 35.5247 24.1841 35.7937C24.4532 36.0628 24.8568 36.0628 25.1258 35.7937L25.8491 35.0705C26.0729 34.8467 26.4245 34.8121 26.6882 34.9879C27.3342 35.4141 28.0561 35.7138 28.8154 35.867C29.1377 35.9536 29.3215 36.1574 29.3215 36.6502V37.9821C29.3215 38.3631 29.6065 38.6481 29.9875 38.6481C30.3684 38.6481 30.6535 38.3631 30.6535 37.9821V36.6502C30.6535 36.3145 30.812 35.9549 31.1636 35.8617C31.9215 35.7098 32.6434 35.4115 33.2907 34.9852C33.5545 34.8108 33.9048 34.8467 34.1272 35.0705L34.8505 35.7937C35.1195 36.0628 35.5231 36.0628 35.7921 35.7937C36.0612 35.5247 36.0612 35.1211 35.7921 34.852L35.0689 34.1288C34.8451 33.905 34.8105 33.5534 34.9863 33.2897C35.4125 32.6437 35.7122 31.9217 35.8654 31.1625C35.9453 30.8668 36.1238 30.6564 36.6486 30.6564H37.9805C38.3615 30.6564 38.6465 30.3713 38.6465 29.9904C38.6465 29.6095 38.3615 29.3244 37.9805 29.3244H36.6486C36.3183 29.3244 35.9666 29.2165 35.8601 28.8143C35.7082 28.0564 35.4099 27.3345 34.9836 26.6872C34.8092 26.4234 34.8451 26.0731 35.0689 25.8507L35.7921 25.1274C36.0612 24.8584 36.0612 24.4548 35.7921 24.1857C35.5231 23.9167 35.1195 23.9167 34.8505 24.1857L34.1272 24.909C33.9034 25.1328 33.5518 25.1674 33.2881 24.9916C32.6421 24.5653 31.9201 24.2657 31.1609 24.1125C30.7667 24.0059 30.6548 23.7662 30.6548 23.3293V21.9973ZM29.9887 26.6592C28.1572 26.6592 26.6588 28.1576 26.6588 29.9891C26.6588 31.8205 28.1572 33.319 29.9887 33.319C31.8201 33.319 33.3185 31.8205 33.3185 29.9891C33.3185 28.1576 31.8201 26.6592 29.9887 26.6592ZM31.9865 29.989C31.9865 28.8782 31.0994 27.9911 29.9886 27.9911C28.8777 27.9911 27.9906 28.8782 27.9906 29.989C27.9906 31.0999 28.8777 31.987 29.9886 31.987C31.0994 31.987 31.9865 31.0999 31.9865 29.989Z" fill="#2AB5CA"/>
</svg>
