<svg width="76" height="72" viewBox="0 0 76 72" fill="none" xmlns="http://www.w3.org/2000/svg">
<path fill-rule="evenodd" clip-rule="evenodd" d="M38.5 70C40.433 70 42 68.433 42 66.5C42 64.567 40.433 63 38.5 63C36.567 63 35 64.567 35 66.5C35 68.433 36.567 70 38.5 70Z" fill="#2AB5CA"/>
<path fill-rule="evenodd" clip-rule="evenodd" d="M38 0C52.9964 0 65.1429 12.1585 65.1429 27.2377C71.1821 27.5774 76 32.6038 76 38.717V40.0755C76 46.4604 70.8429 51.6226 64.4643 51.6226H59.7143C58.2214 51.6226 57 50.4 57 48.9057V29.8868C57 28.3925 58.2214 27.1698 59.7143 27.1698H62.4286C62.4286 13.6528 51.5036 2.71698 38 2.71698C24.4964 2.71698 13.5714 13.6528 13.5714 27.1698H16.2857C17.7786 27.1698 19 28.3925 19 29.8868V48.9057C19 50.4 17.7786 51.6226 16.2857 51.6226H15.3357L19.2714 57.8038C22.1214 62.4226 27.075 65.2076 32.5036 65.2076H33.4536C34.0643 62.8981 36.1679 61.1321 38.6786 61.1321C41.6643 61.1321 44.1071 63.5774 44.1071 66.566C44.1071 69.5547 41.6643 72 38.6786 72C36.1679 72 34.0643 70.234 33.4536 67.9245H32.5036C26.125 67.9245 20.3571 64.7321 16.9643 59.2981L12.1464 51.6226H11.5357C5.15714 51.6226 0 46.4604 0 40.0755V38.717C0 32.6038 4.81786 27.5774 10.8571 27.2377V27.1698C10.8571 12.1585 23.0036 0 38 0ZM41.3929 66.566C41.3929 65.0717 40.1714 63.8491 38.6786 63.8491C37.1857 63.8491 35.9643 65.0717 35.9643 66.566C35.9643 68.0604 37.1857 69.283 38.6786 69.283C40.1714 69.283 41.3929 68.0604 41.3929 66.566ZM16.2857 29.8868V48.9057H11.5357C6.65 48.9057 2.71429 44.966 2.71429 40.0755V38.717C2.71429 33.8264 6.65 29.8868 11.5357 29.8868H16.2857ZM64.4643 48.9057C69.35 48.9057 73.2857 44.966 73.2857 40.0755V38.717C73.2857 33.8264 69.35 29.8868 64.4643 29.8868H59.7143V48.9057H64.4643ZM49.259 9.78348C49.1162 9.72357 48.902 9.60376 48.6877 9.48395C48.4735 9.36414 48.2592 9.24433 48.1164 9.18442C47.4736 8.82499 46.5452 9.0047 46.1882 9.60376C45.8311 10.2028 45.9739 10.8618 46.6881 11.2212C46.8309 11.2811 47.0452 11.4009 47.2594 11.5208C47.4736 11.6406 47.6879 11.7604 47.9021 11.8203C48.1164 11.9401 48.4021 12 48.6163 12C49.1162 12 49.5447 11.8203 49.8304 11.4009C50.1875 10.8618 49.9732 10.1429 49.259 9.78348ZM23.3241 13.7836C27.132 9.48507 32.6707 7 38.5555 7C40.0095 7 41.4634 7.13433 42.9173 7.47015C43.6096 7.67164 44.1635 8.41045 43.9558 9.08209C43.7481 9.75373 43.0557 10.2239 42.2942 10.0896C41.048 9.8209 39.8018 9.68657 38.5555 9.68657C33.5015 9.68657 28.7243 11.8358 25.4011 15.5299C25.1242 15.8657 24.778 16 24.3626 16C24.0164 16 23.7395 15.8657 23.4626 15.6642C22.9087 15.194 22.8395 14.3209 23.3241 13.7836Z" fill="#555555"/>
</svg>
