<svg width="54" height="54" viewBox="0 0 54 54" fill="none" xmlns="http://www.w3.org/2000/svg">
<rect width="54" height="54" fill="white"/>
<path fill-rule="evenodd" clip-rule="evenodd" d="M32.0625 32.0564V12.924C32.0625 10.5622 30.1549 8.63989 27.8098 8.63989C25.4648 8.63989 23.5572 10.5622 23.5572 12.924V32.0564C21.4036 33.6146 20.2639 36.1992 20.5688 38.881C20.9504 42.2361 23.6465 44.9419 26.9788 45.3146C27.2503 45.3452 27.5219 45.3599 27.7922 45.3599C29.5874 45.3599 31.3298 44.6995 32.6706 43.4902C34.2143 42.0978 35.1 40.1026 35.1 38.0169C35.1 35.641 33.9707 33.4377 32.0625 32.0564ZM31.8609 42.5783C30.5572 43.7546 28.8719 44.2938 27.1138 44.0973C24.3392 43.7876 22.0945 41.5348 21.7767 38.7409C21.5112 36.4097 22.5537 34.1685 24.4972 32.8906L24.773 32.7088V31.8967H25.3805C25.7159 31.8967 25.988 31.6231 25.988 31.2846C25.988 30.9462 25.7159 30.6726 25.3805 30.6726H24.773V28.8366H25.3805C25.7159 28.8366 25.988 28.563 25.988 28.2245C25.988 27.8861 25.7159 27.6125 25.3805 27.6125H24.773V25.7765H25.3805C25.7159 25.7765 25.988 25.5029 25.988 25.1644C25.988 24.826 25.7159 24.5524 25.3805 24.5524H24.773V22.7164H25.3805C25.7159 22.7164 25.988 22.4428 25.988 22.1043C25.988 21.7659 25.7159 21.4923 25.3805 21.4923H24.773V19.6563H25.3805C25.7159 19.6563 25.988 19.3827 25.988 19.0442C25.988 18.7058 25.7159 18.4322 25.3805 18.4322H24.773V16.5962H25.3805C25.7159 16.5962 25.988 16.3226 25.988 15.9841C25.988 15.6457 25.7159 15.3721 25.3805 15.3721H24.773V13.5361H25.3805C25.7159 13.5361 25.988 13.2625 25.988 12.924C25.988 12.5856 25.7159 12.312 25.3805 12.312H24.8338C25.1163 10.9172 26.3428 9.86394 27.81 9.86394C29.4849 9.86394 30.8476 11.2367 30.8476 12.924V13.5361H30.24C29.9047 13.5361 29.6325 13.8096 29.6325 14.1481C29.6325 14.4865 29.9047 14.7601 30.24 14.7601H30.8476V16.5962H30.24C29.9047 16.5962 29.6325 16.8697 29.6325 17.2082C29.6325 17.5466 29.9047 17.8202 30.24 17.8202H30.8476V19.6563H30.24C29.9047 19.6563 29.6325 19.9298 29.6325 20.2683C29.6325 20.6067 29.9047 20.8803 30.24 20.8803H30.8476V22.7164H30.24C29.9047 22.7164 29.6325 22.9899 29.6325 23.3284C29.6325 23.6668 29.9047 23.9404 30.24 23.9404H30.8476V25.7765H30.24C29.9047 25.7765 29.6325 26.05 29.6325 26.3885C29.6325 26.7269 29.9047 27.0005 30.24 27.0005H30.8476V28.8366H30.24C29.9047 28.8366 29.6325 29.1101 29.6325 29.4486C29.6325 29.787 29.9047 30.0606 30.24 30.0606H30.8476V32.71L31.1234 32.8912C32.853 34.0277 33.8851 35.944 33.8851 38.0169C33.8851 39.7556 33.147 41.4179 31.8609 42.5783ZM14.9097 28.135L17.01 25.9199L19.1104 28.135C19.6712 28.7264 19.98 29.5126 19.98 30.3495C19.98 31.1865 19.6712 31.9727 19.1104 32.564C18.5313 33.1748 17.771 33.4799 17.01 33.4799C16.2491 33.4799 15.4888 33.1748 14.9097 32.564C14.3489 31.9727 14.04 31.1865 14.04 30.3495C14.04 29.5126 14.3489 28.7264 14.9097 28.135ZM18.2704 31.6782C17.5754 32.4105 16.4451 32.4112 15.7501 31.6782C15.4133 31.3237 15.228 30.8519 15.228 30.3495C15.228 29.8471 15.4133 29.3754 15.7495 29.0208L17.01 27.6915L18.2704 29.0208C18.6066 29.3754 18.792 29.8471 18.792 30.3495C18.792 30.8519 18.6066 31.3237 18.2704 31.6782ZM33.48 13.2299C33.48 14.8702 34.8098 16.1999 36.45 16.1999C38.0903 16.1999 39.42 14.8702 39.42 13.2299C39.42 11.5896 38.0903 10.2599 36.45 10.2599C34.8098 10.2599 33.48 11.5896 33.48 13.2299ZM36.45 15.1199C37.4939 15.1199 38.34 14.2737 38.34 13.2299C38.34 12.1861 37.4939 11.3399 36.45 11.3399C35.4062 11.3399 34.56 12.1861 34.56 13.2299C34.56 14.2737 35.4062 15.1199 36.45 15.1199ZM39.42 17.8199V16.7399H33.48V17.8199H39.42Z" fill="#555555"/>
<path d="M28.4038 35.0262V12.4874C28.4038 12.1514 28.1377 11.8799 27.8098 11.8799C27.482 11.8799 27.2158 12.1514 27.2158 12.4874V35.0262C25.8603 35.3075 24.8398 36.5328 24.8398 38.0024C24.8398 39.6797 26.1698 41.0399 27.8098 41.0399C29.4499 41.0399 30.7798 39.6797 30.7798 38.0024C30.7798 36.5328 29.7594 35.3075 28.4038 35.0262Z" fill="#2AB5CA"/>
</svg>
