<svg width="24" height="24" viewBox="0 0 24 24" fill="none" xmlns="http://www.w3.org/2000/svg">
<path fill-rule="evenodd" clip-rule="evenodd" d="M21.8577 11.9288C21.8577 17.4124 17.4124 21.8577 11.9288 21.8577C6.4453 21.8577 2 17.4124 2 11.9288C2 6.4453 6.4453 2 11.9288 2C17.4124 2 21.8577 6.4453 21.8577 11.9288ZM16.6474 9.50885C17.1274 9.45186 17.5851 9.32425 18.0106 9.13558C17.6926 9.6115 17.2903 10.0294 16.8262 10.3639C16.8308 10.4655 16.8331 10.568 16.8331 10.6708C16.8331 13.8073 14.4458 17.4235 10.0805 17.4235C8.74035 17.4235 7.49257 17.0308 6.44283 16.3572C6.62814 16.3793 6.81752 16.3904 7.00867 16.3904C8.12088 16.3904 9.14407 16.0112 9.95646 15.3745C8.9177 15.3552 8.04142 14.669 7.73947 13.7264C7.88425 13.754 8.03274 13.7687 8.18602 13.7687C8.40212 13.7687 8.61221 13.7398 8.81115 13.6853C7.72566 13.4674 6.90726 12.5083 6.90726 11.3584C6.90726 11.3485 6.90726 11.3384 6.90743 11.3283C7.22726 11.5065 7.59345 11.6133 7.9823 11.6255C7.34584 11.2 6.92655 10.4733 6.92655 9.65009C6.92655 9.21522 7.04372 8.80726 7.24796 8.45681C8.41858 9.8931 10.1674 10.8379 12.1398 10.9368C12.0991 10.763 12.0781 10.5819 12.0781 10.3959C12.0781 9.08549 13.1409 8.02266 14.4513 8.02266C15.1343 8.02266 15.7512 8.3108 16.1841 8.77186C16.7244 8.66549 17.2326 8.46814 17.6912 8.19611C17.5136 8.75062 17.1375 9.21522 16.6474 9.50885Z" fill="#55ACEE"/>
<mask id="mask0_4921_391" style="mask-type:luminance" maskUnits="userSpaceOnUse" x="2" y="2" width="20" height="20">
<path fill-rule="evenodd" clip-rule="evenodd" d="M21.8577 11.9288C21.8577 17.4124 17.4124 21.8577 11.9288 21.8577C6.4453 21.8577 2 17.4124 2 11.9288C2 6.4453 6.4453 2 11.9288 2C17.4124 2 21.8577 6.4453 21.8577 11.9288ZM16.6474 9.50885C17.1274 9.45186 17.5851 9.32425 18.0106 9.13558C17.6926 9.6115 17.2903 10.0294 16.8262 10.3639C16.8308 10.4655 16.8331 10.568 16.8331 10.6708C16.8331 13.8073 14.4458 17.4235 10.0805 17.4235C8.74035 17.4235 7.49257 17.0308 6.44283 16.3572C6.62814 16.3793 6.81752 16.3904 7.00867 16.3904C8.12088 16.3904 9.14407 16.0112 9.95646 15.3745C8.9177 15.3552 8.04142 14.669 7.73947 13.7264C7.88425 13.754 8.03274 13.7687 8.18602 13.7687C8.40212 13.7687 8.61221 13.7398 8.81115 13.6853C7.72566 13.4674 6.90726 12.5083 6.90726 11.3584C6.90726 11.3485 6.90726 11.3384 6.90743 11.3283C7.22726 11.5065 7.59345 11.6133 7.9823 11.6255C7.34584 11.2 6.92655 10.4733 6.92655 9.65009C6.92655 9.21522 7.04372 8.80726 7.24796 8.45681C8.41858 9.8931 10.1674 10.8379 12.1398 10.9368C12.0991 10.763 12.0781 10.5819 12.0781 10.3959C12.0781 9.08549 13.1409 8.02266 14.4513 8.02266C15.1343 8.02266 15.7512 8.3108 16.1841 8.77186C16.7244 8.66549 17.2326 8.46814 17.6912 8.19611C17.5136 8.75062 17.1375 9.21522 16.6474 9.50885Z" fill="white"/>
</mask>
<g mask="url(#mask0_4921_391)">
<rect width="24" height="24" fill="#939393"/>
</g>
</svg>
