<svg width="24" height="24" viewBox="0 0 24 24" fill="none" xmlns="http://www.w3.org/2000/svg">
<path d="M19.9965 7.539C19.4081 7.79991 18.7752 7.97637 18.1114 8.05518C18.7891 7.64914 19.3092 7.00666 19.5547 6.23986C18.9206 6.61604 18.2179 6.88894 17.4707 7.03604C16.872 6.39846 16.019 6 15.0745 6C13.2624 6 11.7927 7.46974 11.7927 9.28188C11.7927 9.53911 11.8218 9.78949 11.8781 10.0298C9.15056 9.89302 6.73217 8.58654 5.11338 6.60038C4.83093 7.08499 4.66891 7.64914 4.66891 8.25049C4.66891 9.38884 5.24872 10.3938 6.12885 10.9822C5.59113 10.9653 5.08474 10.8177 4.64247 10.5712C4.64223 10.5852 4.64223 10.5991 4.64223 10.6128C4.64223 12.203 5.77396 13.5293 7.27503 13.8306C6.99992 13.906 6.7094 13.9459 6.41056 13.9459C6.19861 13.9459 5.99326 13.9256 5.79305 13.8874C6.2106 15.1909 7.42237 16.1398 8.85882 16.1665C7.7354 17.0469 6.32049 17.5714 4.78247 17.5714C4.51814 17.5714 4.25626 17.556 4 17.5254C5.45162 18.4569 7.17712 19 9.03039 19C15.0669 19 18.3682 13.9992 18.3682 9.66198C18.3682 9.51978 18.365 9.37807 18.3586 9.23758C19.0004 8.775 19.5567 8.19714 19.9965 7.539Z" fill="#55ACEE"/>
<mask id="mask0_10_6877" style="mask-type:luminance" maskUnits="userSpaceOnUse" x="4" y="6" width="16" height="13">
<path d="M19.9965 7.539C19.4081 7.79991 18.7752 7.97637 18.1114 8.05518C18.7891 7.64914 19.3092 7.00666 19.5547 6.23986C18.9206 6.61604 18.2179 6.88894 17.4707 7.03604C16.872 6.39846 16.019 6 15.0745 6C13.2624 6 11.7927 7.46974 11.7927 9.28188C11.7927 9.53911 11.8218 9.78949 11.8781 10.0298C9.15056 9.89302 6.73217 8.58654 5.11338 6.60038C4.83093 7.08499 4.66891 7.64914 4.66891 8.25049C4.66891 9.38884 5.24872 10.3938 6.12885 10.9822C5.59113 10.9653 5.08474 10.8177 4.64247 10.5712C4.64223 10.5852 4.64223 10.5991 4.64223 10.6128C4.64223 12.203 5.77396 13.5293 7.27503 13.8306C6.99992 13.906 6.7094 13.9459 6.41056 13.9459C6.19861 13.9459 5.99326 13.9256 5.79305 13.8874C6.2106 15.1909 7.42237 16.1398 8.85882 16.1665C7.7354 17.0469 6.32049 17.5714 4.78247 17.5714C4.51814 17.5714 4.25626 17.556 4 17.5254C5.45162 18.4569 7.17712 19 9.03039 19C15.0669 19 18.3682 13.9992 18.3682 9.66198C18.3682 9.51978 18.365 9.37807 18.3586 9.23758C19.0004 8.775 19.5567 8.19714 19.9965 7.539Z" fill="white"/>
</mask>
<g mask="url(#mask0_10_6877)">
<rect width="24" height="24" fill="#939393"/>
</g>
</svg>
