<svg width="38" height="24" viewBox="0 0 38 24" fill="none" xmlns="http://www.w3.org/2000/svg">
<path d="M19.0001 15.1052C16.7098 15.1052 14.4621 16.1017 12.9274 17.8C12.7618 17.9624 12.6999 18.2032 12.7666 18.4253C12.8333 18.6474 13.0176 18.8142 13.2452 18.8586C13.4728 18.9029 13.7063 18.8175 13.8515 18.6367C15.1414 17.2081 17.0757 16.3515 19.0001 16.3515C20.9231 16.3515 22.8587 17.2081 24.1474 18.6367C24.2926 18.8175 24.526 18.9029 24.7537 18.8586C24.9813 18.8142 25.1656 18.6474 25.2322 18.4253C25.2989 18.2032 25.237 17.9624 25.0715 17.8C23.5393 16.1017 21.2915 15.1052 19.0001 15.1052Z" fill="#555555"/>
<path fill-rule="evenodd" clip-rule="evenodd" d="M19 7.61255C14.1361 7.61255 9.37838 10.1163 6.62489 14.1235C6.49162 14.3072 6.46848 14.5487 6.56446 14.7543C6.66044 14.9599 6.86041 15.0973 7.08678 15.1131C7.31314 15.1289 7.53026 15.0206 7.65386 14.8303C10.1638 11.179 14.5669 8.8613 19 8.8613C23.4331 8.8613 27.8374 11.179 30.3461 14.8303C30.4697 15.0206 30.6869 15.1289 30.9132 15.1131C31.1396 15.0973 31.3396 14.9599 31.4355 14.7543C31.5315 14.5487 31.5084 14.3072 31.3751 14.1235C28.6216 10.115 23.8639 7.61255 19 7.61255Z" fill="#555555"/>
<path fill-rule="evenodd" clip-rule="evenodd" d="M19 0.120117C11.8746 0.120117 4.85166 3.50798 0.418595 9.08364C0.266603 9.25698 0.222497 9.49997 0.303872 9.71567C0.385247 9.93138 0.57886 10.0847 0.807472 10.1144C1.03608 10.1442 1.26249 10.0456 1.39637 9.85787C5.58342 4.59314 12.273 1.36637 19.0037 1.36637C25.7345 1.36637 32.4241 4.59314 36.6111 9.85787C36.7437 10.049 36.9715 10.1506 37.2023 10.1215C37.433 10.0924 37.6285 9.93739 37.7095 9.71934C37.7904 9.50129 37.7435 9.25631 37.5876 9.08364C33.1508 3.50798 26.1304 0.120117 19.0025 0.120117H19Z" fill="#2AB5CA"/>
<path fill-rule="evenodd" clip-rule="evenodd" d="M20.2485 22.5976C20.2485 23.2873 19.6894 23.8464 18.9997 23.8464C18.3101 23.8464 17.751 23.2873 17.751 22.5976C17.751 21.908 18.3101 21.3489 18.9997 21.3489C19.6894 21.3489 20.2485 21.908 20.2485 22.5976Z" fill="#555555"/>
</svg>
